<svg xmlns="http://www.w3.org/2000/svg" xmlns:xlink="http://www.w3.org/1999/xlink" version="1.1" x="0px" y="0px" viewBox="0 0 345.5 410" style="enable-background:new 0 0 345.5 328;" xml:space="preserve"><title>pig</title><path d="M307.3,311.5c1.9,0,3.5-1.6,3.5-3.5c0,0,0,0,0,0c0-0.9-0.4-1.8-1-2.5c-1.4-1.3-3.6-1.3-5,0c-1.4,1.3-1.4,3.6-0.1,4.9  C305.4,311.2,306.3,311.6,307.3,311.5z"/><path d="M291.8,53.2c-0.4,1.9,0.9,3.7,2.8,4.1c0,0,0,0,0,0c0.2,0,0.4,0.1,0.6,0.1c1.9,0,3.5-1.6,3.5-3.5c0-1.9-1.6-3.5-3.5-3.5  C293.6,50.3,292.1,51.5,291.8,53.2z"/><path d="M294.8,39.1c-0.4,1.9,0.7,3.8,2.6,4.2c0,0,0,0,0,0c0.3,0.1,0.5,0.1,0.8,0.1c1.9,0,3.5-1.6,3.5-3.5c0-1.9-1.6-3.5-3.5-3.5  C296.6,36.4,295.2,37.5,294.8,39.1z"/><path d="M297.1,270c0.2,0,0.4,0,0.7,0c1.9-0.4,3.1-2.2,2.8-4.1c-0.4-1.9-2.2-3.1-4.1-2.8c-1.9,0.4-3.1,2.2-2.8,4.1l0,0  C294,268.8,295.4,270,297.1,270z"/><path d="M287.7,156.6L287.7,156.6c1.9,0,3.5-1.6,3.5-3.5c0-1.9-1.6-3.5-3.5-3.5c-1.9,0-3.5,1.5-3.5,3.4  C284.2,155,285.7,156.6,287.7,156.6C287.7,156.6,287.7,156.6,287.7,156.6z"/><path d="M288,142.4L288,142.4c2.3,0,4.1-1.8,4-4s-1.8-4-4-4c-2.2,0-4,1.8-4,4C284,140.6,285.8,142.3,288,142.4z"/><path d="M288.8,113.9h0.2c1.9,0,3.4-1.6,3.3-3.5c0-1.9-1.6-3.4-3.5-3.3s-3.4,1.6-3.3,3.5C285.6,112.4,287,113.9,288.8,113.9z"/><path d="M287.7,81.6L287.7,81.6c-0.2,1.9,1.2,3.6,3.1,3.8c0.1,0,0.2,0,0.4,0c1.9,0,3.5-1.5,3.6-3.4c0-1.9-1.5-3.5-3.4-3.6  C289.4,78.5,287.9,79.8,287.7,81.6z"/><path d="M288.3,128.1h0.1c1.9,0,3.4-1.6,3.4-3.5c0-1.9-1.6-3.4-3.5-3.4c-1.9,0-3.4,1.6-3.4,3.5C285,126.6,286.5,128.1,288.3,128.1z"/><path d="M286.4,95.9c-0.1,1.9,1.3,3.6,3.2,3.8h0.3c1.9,0,3.5-1.6,3.5-3.5c0-1.9-1.6-3.5-3.5-3.5C288.1,92.7,286.5,94.1,286.4,95.9z"/><path d="M289.4,67.4c-0.3,1.9,1,3.7,2.9,4c0,0,0,0,0.1,0c0.2,0,0.3,0,0.5,0c1.9,0,3.5-1.6,3.5-3.5c0-1.9-1.6-3.5-3.5-3.5  C291.1,64.4,289.7,65.7,289.4,67.4z"/><path d="M294.6,256c0.2,0,0.4,0,0.6,0c1.9-0.2,3.4-1.9,3.2-3.8c-0.2-1.9-1.9-3.4-3.8-3.2s-3.4,1.9-3.2,3.8  C291.5,254.5,292.9,255.9,294.6,256z"/><path d="M289.1,238.9c0.2,1.7,1.7,3,3.5,3c0.2,0,0.3,0,0.5,0c1.9-0.3,3.3-2,3-3.9c-0.3-1.9-2-3.3-3.9-3  C290.2,235.2,288.8,236.9,289.1,238.9L289.1,238.9L289.1,238.9z"/><path d="M296.5,281.2c0.4,1.6,1.8,2.7,3.4,2.7c0.3,0,0.5,0,0.8-0.1c1.9-0.4,3.1-2.3,2.7-4.2c-0.4-1.9-2.3-3.1-4.2-2.7  S296.1,279.4,296.5,281.2C296.5,281.3,296.5,281.3,296.5,281.2L296.5,281.2L296.5,281.2z"/><path d="M303.3,297.8c0.3,0,0.6,0,0.9-0.1c1.9-0.5,3-2.4,2.5-4.3l0,0c-0.5-1.9-2.4-3-4.3-2.5c-1.9,0.5-3,2.4-2.5,4.3  C300.3,296.8,301.7,297.8,303.3,297.8z"/><path d="M290.9,227.7c0.1,0,0.2,0,0.4,0c1.9-0.1,3.4-1.7,3.3-3.7c-0.1-1.9-1.7-3.4-3.7-3.3s-3.4,1.7-3.3,3.7  C287.7,226.2,289.1,227.6,290.9,227.7z"/><path d="M287.7,170.9L287.7,170.9c1.9,0,3.5-1.6,3.5-3.5s-1.6-3.5-3.5-3.5s-3.5,1.6-3.5,3.5C284.2,169.3,285.8,170.9,287.7,170.9z"/><path d="M287.9,185.1h0.1c2,0,3.5-1.6,3.5-3.6s-1.6-3.5-3.6-3.5c-2,0-3.5,1.6-3.5,3.6C284.5,183.5,286,185.1,287.9,185.1z"/><path d="M288.6,199.3h0.2c1.9,0,3.4-1.6,3.3-3.5c0-1.9-1.6-3.4-3.5-3.3s-3.4,1.6-3.3,3.5C285.3,197.8,286.7,199.3,288.6,199.3z"/><path d="M289.5,213.6h0.3c1.9-0.1,3.3-1.7,3.3-3.5c-0.1-1.9-1.7-3.3-3.5-3.3c-1.9,0.1-3.3,1.7-3.3,3.5  C286.4,212.1,287.8,213.5,289.5,213.6z"/><path d="M301.8,29.6c0.9,0,1.8-0.4,2.5-1c0.6-0.7,1-1.5,1-2.5c0-0.9-0.4-1.8-1-2.5c-1.4-1.3-3.6-1.3-5,0c-0.6,0.7-1,1.6-1,2.5  c0,0.9,0.4,1.8,1,2.5C300,29.2,300.9,29.6,301.8,29.6z"/><path d="M30.6,249.2c0-0.9-0.4-1.8-1-2.5c-1.4-1.3-3.6-1.3-5,0c-1.4,1.4-1.4,3.6,0,4.9c1.4,1.4,3.6,1.4,4.9,0  C30.3,251,30.6,250.1,30.6,249.2z"/><path d="M55.5,259.7c-1.8,0.7-2.7,2.8-2,4.5c0.5,1.3,1.8,2.2,3.2,2.2c0.4,0,0.9-0.1,1.3-0.2c1.8-0.8,2.5-2.9,1.7-4.6  C59,260,57.2,259.2,55.5,259.7z"/><path d="M67.9,254.1c-1.7,0.8-2.5,2.9-1.6,4.7c0.8,1.7,2.9,2.5,4.7,1.6c1.7-0.8,2.5-2.9,1.6-4.7c0,0,0,0,0,0  C71.8,254,69.7,253.3,67.9,254.1z"/><path d="M46.9,266.4c-0.2-1.9-1.9-3.3-3.9-3.1c-1.9,0.2-3.3,1.9-3.1,3.9c0.2,1.8,1.7,3.1,3.5,3.1h0.4l0,0  C45.7,270.1,47.1,268.3,46.9,266.4C46.9,266.4,46.9,266.4,46.9,266.4z"/><path d="M31.1,265.3c1.9,0,3.5-1.6,3.5-3.5c0-0.9-0.3-1.7-0.9-2.3l0,0c-1.3-1.4-3.5-1.6-4.9-0.3c-1.4,1.3-1.6,3.5-0.3,4.9  C29.1,264.9,30.1,265.3,31.1,265.3z"/><path d="M132.3,221c-1.5-1.2-3.7-0.8-4.9,0.7c-1.2,1.5-0.8,3.7,0.7,4.9c1.5,1.2,3.7,0.8,4.9-0.7c0,0,0,0,0,0l0,0  C134.2,224.3,133.9,222.1,132.3,221z"/><path d="M92.4,241.1c-1.7,0.9-2.3,3-1.4,4.7c0.9,1.7,3,2.3,4.7,1.4c1.7-0.9,2.3-3,1.4-4.7c0,0,0,0,0,0  C96.2,240.8,94.1,240.2,92.4,241.1z"/><path d="M80.2,247.8c-1.7,1-2.2,3.1-1.2,4.8c0.9,1.6,2.9,2.1,4.5,1.4l0,0c1.7-0.8,2.5-2.9,1.6-4.7c-0.8-1.7-2.9-2.5-4.7-1.6  C80.4,247.7,80.3,247.8,80.2,247.8z"/><path d="M105,234.8L105,234.8c-1.7,0.8-2.5,2.9-1.7,4.7c0.6,1.2,1.8,2,3.1,2c0.5,0,1-0.1,1.5-0.3c1.7-0.9,2.4-3,1.5-4.7  C108.7,234.8,106.7,234.1,105,234.8z"/><path d="M135.1,209.7c-0.4-1.9-2.2-3.1-4.1-2.8c-1.9,0.4-3.1,2.2-2.8,4.1c0.3,1.6,1.8,2.8,3.4,2.8c0.2,0,0.4,0,0.7-0.1  C134.2,213.5,135.4,211.6,135.1,209.7C135.1,209.7,135.1,209.7,135.1,209.7z"/><path d="M119.1,235.5c0.6,0,1.1-0.1,1.6-0.4c1.7-0.9,2.4-3,1.5-4.7s-3-2.4-4.7-1.5c-1.7,0.9-2.4,3-1.5,4.7  C116.6,234.7,117.8,235.5,119.1,235.5z"/><path d="M125.6,201.6c1.9,0,3.5-1.5,3.5-3.5c0-1.9-1.5-3.5-3.5-3.5c-1.9,0-3.5,1.5-3.5,3.5c0,1,0.4,1.9,1.1,2.5  C123.8,201.2,124.7,201.6,125.6,201.6z"/><path d="M112.6,197.9c0.9,0,1.8-0.4,2.5-1c1.4-1.4,1.4-3.6,0-5c0,0,0,0,0,0c-1.4-1.3-3.6-1.3-5,0c-1.4,1.4-1.4,3.6,0,5  C110.8,197.6,111.7,197.9,112.6,197.9z"/><path d="M266.3,283.6c1.6,1.1,3.8,0.7,4.9-0.8c1.1-1.6,0.7-3.8-0.8-4.9c-1.6-1.1-3.8-0.7-4.9,0.8  C264.4,280.3,264.7,282.5,266.3,283.6z"/><path d="M274.3,271.5c1.6,0,3-1,3.4-2.5l0,0c0.5-1.9-0.6-3.8-2.4-4.3c-1.9-0.5-3.8,0.6-4.3,2.4c-0.5,1.9,0.6,3.8,2.4,4.3  C273.7,271.5,274,271.5,274.3,271.5z"/><path d="M272.9,253.9L272.9,253.9z"/><path d="M273.7,208.2c-1.9,0.3-3.2,2.1-2.9,4l0,0c0.3,1.7,1.7,2.9,3.4,2.9c0.2,0,0.4,0,0.6,0c1.9-0.3,3.2-2.1,2.9-4  S275.6,207.8,273.7,208.2z"/><path d="M271.3,195.9c-1.5-1.2-3.7-1-4.9,0.6c-1.2,1.5-1,3.7,0.6,4.9c0,0,0,0,0,0c0.6,0.5,1.4,0.8,2.2,0.8c1.9,0,3.5-1.6,3.5-3.5  C272.6,197.6,272.2,196.6,271.3,195.9z"/><path d="M279.9,254.2c0.1-1.9-1.4-3.6-3.4-3.6c-1.9-0.1-3.6,1.4-3.6,3.4c-0.1,1.9,1.4,3.6,3.4,3.6c0,0,0,0,0,0h0.1  C278.3,257.5,279.8,256,279.9,254.2z"/><path d="M252.2,201.7c0.5,1.4,1.8,2.4,3.3,2.4c0.4,0,0.8-0.1,1.1-0.2c1.8-0.7,2.8-2.7,2.1-4.5c-0.6-1.8-2.5-2.7-4.3-2.2l0,0  C252.6,197.9,251.6,199.9,252.2,201.7z"/><path d="M258.4,294.2c1.9,0,3.5-1.6,3.5-3.5c0-1.9-1.6-3.5-3.5-3.5c-0.7,0-1.5,0.2-2.1,0.7l0,0c-1.6,1.1-1.9,3.3-0.7,4.9  C256.2,293.7,257.3,294.2,258.4,294.2z"/><path d="M272.8,239.9c0,1.9,1.6,3.4,3.5,3.4h0.1c1.9,0,3.5-1.6,3.4-3.6s-1.6-3.5-3.6-3.4C274.3,236.4,272.8,238,272.8,239.9z"/><path d="M275.6,222.2c-1.9,0.1-3.5,1.7-3.4,3.6c0.1,1.9,1.7,3.5,3.6,3.4h0.2c1.9-0.1,3.4-1.8,3.3-3.7S277.5,222.1,275.6,222.2  L275.6,222.2z"/><path d="M246.1,301.2c1.9,0,3.5-1.6,3.5-3.5c0-1.9-1.6-3.5-3.5-3.5c-1.9,0-3.5,1.6-3.5,3.5c0,0.5,0.1,1,0.3,1.4  C243.5,300.4,244.8,301.2,246.1,301.2z"/><path d="M242.2,209c0.4,0,0.9-0.1,1.3-0.2c1.8-0.7,2.7-2.7,1.9-4.5s-2.7-2.7-4.5-1.9c-1.8,0.7-2.7,2.7-1.9,4.5  C239.5,208.2,240.8,209,242.2,209z"/><path d="M192.2,232.3c1.7-0.9,2.4-3,1.5-4.7s-3-2.4-4.7-1.5s-2.4,3-1.5,4.7c0.6,1.2,1.8,1.9,3.1,1.9  C191.2,232.7,191.8,232.6,192.2,232.3z"/><path d="M167.2,248c1.9,0,3.5-1.6,3.5-3.5c0-1.9-1.6-3.5-3.5-3.5c-1.9,0-3.5,1.6-3.5,3.5c0,1.5,1,2.9,2.5,3.4  C166.5,247.9,166.9,248,167.2,248z"/><path d="M190.7,294.6c0.6,0.4,1.3,0.6,2,0.6c1.9,0,3.5-1.5,3.5-3.5c0-1.9-1.5-3.5-3.5-3.5c-1.9,0-3.5,1.5-3.5,3.5  C189.3,292.9,189.8,293.9,190.7,294.6z"/><path d="M167.8,262c1.9,0,3.5-1.6,3.5-3.5s-1.6-3.5-3.5-3.5c-1.9,0-3.5,1.6-3.5,3.5c0,0.3,0,0.6,0.1,0.9  C164.8,260.9,166.2,262,167.8,262z"/><path d="M218.2,306h0.4c1.9-0.1,3.4-1.8,3.3-3.7c-0.1-1.9-1.8-3.4-3.7-3.3s-3.4,1.8-3.3,3.7C215,304.5,216.4,305.9,218.2,306z"/><path d="M217.6,220c1.8-0.8,2.5-2.9,1.7-4.6c-0.8-1.8-2.9-2.5-4.6-1.7c-1.8,0.8-2.5,2.9-1.7,4.6c0.6,1.2,1.8,2,3.2,2  C216.6,220.3,217.1,220.2,217.6,220z"/><path d="M204.8,226c1.7-0.8,2.5-2.9,1.6-4.7c-0.8-1.7-2.9-2.5-4.7-1.6c-1.7,0.8-2.5,2.9-1.6,4.7c0.6,1.2,1.8,2,3.2,2  C203.8,226.3,204.4,226.2,204.8,226z"/><path d="M203.7,302c0.4,0.2,0.9,0.3,1.4,0.3c1.9,0,3.5-1.6,3.5-3.5c0-1.9-1.6-3.5-3.5-3.5c-1.9,0-3.5,1.6-3.5,3.5  C201.5,300.2,202.4,301.4,203.7,302z"/><path d="M173.3,275c0.6,0,1.2-0.2,1.8-0.5c1.7-1,2.2-3.1,1.3-4.8c-1-1.7-3.1-2.2-4.8-1.3c-1.7,1-2.2,3.1-1.3,4.8  C170.9,274.3,172,275,173.3,275z"/><path d="M180,239.1c1.7-1,2.2-3.1,1.2-4.8c-1-1.7-3.1-2.2-4.8-1.2c-1.7,1-2.2,3.1-1.2,4.8c0.6,1.1,1.8,1.7,3,1.7  C178.8,239.5,179.4,239.4,180,239.1z"/><path d="M232.7,305.6c0.2,0,0.4,0,0.6-0.1c1.9-0.4,3.1-2.2,2.8-4.1c-0.4-1.9-2.2-3.1-4.1-2.8c-1.9,0.4-3.1,2.2-2.8,4.1  C229.6,304.4,231.1,305.6,232.7,305.6z"/><path d="M182,286.1c1.9,0,3.5-1.6,3.5-3.5c0-1.9-1.6-3.5-3.5-3.5c-1.9,0-3.5,1.6-3.5,3.5c0,0.9,0.4,1.8,1.1,2.5  C180.2,285.7,181.1,286.1,182,286.1z"/><path d="M225.9,212.4c0.6,1.3,1.8,2.1,3.2,2.1c0.5,0,0.9-0.1,1.4-0.3c1.8-0.8,2.6-2.8,1.8-4.6s-2.8-2.6-4.6-1.8  C225.9,208.5,225.1,210.6,225.9,212.4z"/><path d="M256.6,38.4c-1.4,1.4-1.4,3.6,0,5c0,0,0,0,0,0c0.7,0.6,1.6,1,2.5,1c1.9,0,3.5-1.5,3.5-3.5c0-0.9-0.4-1.9-1.1-2.5  C260.2,37.1,258,37.1,256.6,38.4z"/><path d="M276.6,130.5c-0.9-1.7-3-2.4-4.7-1.6c-1.7,0.9-2.4,3-1.6,4.7c0.9,1.7,3,2.4,4.7,1.6C276.7,134.3,277.4,132.2,276.6,130.5  C276.6,130.5,276.6,130.5,276.6,130.5z"/><path d="M259,77.3c-1.9,0.1-3.4,1.8-3.3,3.7s1.8,3.4,3.7,3.3h0.4c1.9-0.2,3.3-1.9,3.1-3.9S261,77.1,259,77.3z"/><path d="M254.7,54.1c0,1.9,1.5,3.5,3.4,3.6c0,0,0,0,0,0h0.1c1.9,0,3.5-1.6,3.5-3.5c0-1.9-1.6-3.5-3.5-3.5  C256.3,50.7,254.7,52.2,254.7,54.1L254.7,54.1L254.7,54.1z"/><path d="M258.5,71c2,0,3.5-1.7,3.5-3.7s-1.7-3.5-3.7-3.5s-3.5,1.7-3.5,3.7c0,1.9,1.6,3.5,3.5,3.5H258.5z"/><path d="M268.2,123.2c1.9,0,3.5-1.6,3.5-3.5c0-1.9-1.6-3.5-3.5-3.5s-3.5,1.6-3.5,3.5c0,0.4,0.1,0.8,0.2,1.2  C265.5,122.3,266.8,123.2,268.2,123.2z"/><path d="M265.2,110.4c1.9-0.5,3-2.4,2.5-4.3c-0.5-1.9-2.4-3-4.3-2.5s-3,2.4-2.5,4.3c0,0,0,0,0,0l0,0c0.4,1.5,1.8,2.6,3.4,2.6  C264.6,110.5,264.9,110.5,265.2,110.4z"/><path d="M260.7,90.5c-1.9,0.4-3.2,2.2-2.8,4.1c0.3,1.7,1.8,2.9,3.4,2.9c0.2,0,0.4,0,0.6-0.1c1.9-0.3,3.2-2.1,2.9-4  c-0.3-1.9-2.1-3.2-4-2.9C260.8,90.5,260.7,90.5,260.7,90.5z"/><path d="M282.7,146c0.6-0.7,1-1.5,1-2.5c0-0.9-0.4-1.8-1-2.5c-1.4-1.3-3.6-1.3-5,0c-0.6,0.7-1,1.6-1,2.5c0,0.9,0.4,1.8,1,2.5  C279.1,147.4,281.3,147.4,282.7,146C282.7,146,282.7,146,282.7,146z"/><path d="M345.3,312.1c-0.6-2.4-3-3.9-5.4-3.3c0,0,0,0,0,0c-45.9,11.4-101,13.2-163.7,5.4c-2.9-0.4-4.9-0.6-6.1-0.7  c-3.7-0.3-11.4,0.1-22.1,0.6c-18.5,0.9-43.8,2.2-59.2,0.3c-10.5-1.3-16.2-4.2-19.8-6.6c15.9-5.1,36.2-13.2,41.8-16.3  c3.7-2,7-4.7,9.6-8c1.9-2.2,2.3-2.7,6.1-2.6c7.2,0.2,20.7-4,27.7-6.3c1.1,2.3,2.8,4.4,4.8,6c1.9,1.6,4.8,1.3,6.3-0.6  c1.6-1.9,1.3-4.8-0.6-6.3c0,0-0.1-0.1-0.1-0.1c-1.6-1.5-2.7-3.4-3.2-5.5c-0.5-2.4-2.8-4-5.3-3.6c-0.2,0-0.4,0.1-0.7,0.2  c-5.8,2.1-22.1,7.4-28.6,7.2c-7.5-0.2-10.2,2.2-13.2,5.7c-1.9,2.4-4.4,4.5-7.1,5.9c-8.7,4.8-45.3,18.4-54.9,19.5  c-1.7,0.1-3.4,0.3-5.1,0.4c-5.1,0.4-13.7,1.2-15.6-0.1c-5.1-3.4-6.3-13.9-7.3-23.1c-0.7-6.1-1.3-11.8-3.1-16  c-1.8-3.9-3.9-7.6-6.4-11.1c-2-3-5.8-8.7-4.8-9.8c1.6-2,5.9-1.9,10.4-1.8c3.5,0.2,7.1,0,10.6-0.6c8-1.6,19.1-10,28.9-17.5  c2.1-1.6,4-3,5.8-4.3c3.4-2.3,7-4.2,10.7-5.9c8.2-3.9,17.4-8.4,25.8-17.8c10-11.2,16.3-20.8,20.5-29.2c9.1,4.7,20.3,10.1,33.2,10.4  h0.9c17.7,0,64.4-11.1,70.2-21.6c1.2-2.2,0.4-4.9-1.8-6.1c-2.2-1.2-4.9-0.4-6.1,1.7c0,0,0,0,0,0c-3.6,5.1-43.6,17.4-63,16.9  c-11.8-0.3-22.1-5.6-31.2-10.4c-3.9-2.2-7.9-4-12.1-5.6c-6.7-2.2-13.4-2.7-19.8-3.2c-4-0.2-8-0.7-12-1.4c-6.8-1.5-15.2-7.9-17.7-11  c5-5.5,27.1-22.7,50-33.2c22.7-10.3,63.5-20.8,77-17.9c2.4,0.5,4.8-1,5.3-3.5c0.5-2.4-1-4.8-3.4-5.3c-3.7-0.6-7.5-0.8-11.3-0.5  c6.2-4.6,12.4-8.8,18.2-12.4C237.2,39,284.9,20.7,340.1,9c2.4-0.6,3.9-3,3.3-5.4c-0.6-2.3-2.8-3.8-5.2-3.4  c-56.2,12-104.9,30.6-144.6,55.5c-8.6,5.4-16,10.6-22.5,15.6c-21.5-0.3-50.1,0.9-75.2,11.9C80.2,90,70,98.2,64.1,103.9  c-6.3,6.1-10.8,12.5-11.9,16.7c-0.6,1.8-0.3,3.7,0.8,5.2c0.9,1.3,2.5,2,4.1,1.9c0.4,0,0.9,0,1.3-0.1c-3.2,3-5,5.4-5.3,7  c-0.3,1.4-1.2,5.5,8.6,13.1c2.6,2,9.4,6.8,16.5,8.3c4.4,0.8,8.8,1.4,13.3,1.6c5.9,0.4,12,0.9,17.7,2.8c1.6,0.5,3.1,1.2,4.6,1.9  c-4,7.9-9.8,16.7-19.2,27.3c-7.2,8-15.2,11.9-23,15.7c-4.2,1.9-8.3,4.1-12.1,6.7c-1.8,1.3-3.8,2.8-5.9,4.4  c-8.2,6.2-19.3,14.6-25.3,15.8c-2.9,0.4-5.8,0.6-8.7,0.4c-6.2-0.1-13.2-0.2-17.6,5.2c-5,6.3,0,13.8,4.4,20.4c2.2,3,4,6.2,5.6,9.6  c1.3,3,1.8,8.1,2.4,13.6c1.3,11.1,2.7,23.8,11.3,29.6c4.5,3,12.3,2.3,21.3,1.6c1.5-0.1,3-0.3,4.5-0.4H52c2.6-0.2,5.1-0.3,7.3-0.2  c0.4,0.2,1,0.8,1.6,1.2c3.8,2.9,10.9,8.3,26.8,10.3c16.2,2,41.9,0.7,60.7-0.2c9.6-0.5,17.9-0.9,21-0.6c1,0.1,3.1,0.3,5.7,0.7  c24.4,3.1,49,4.7,73.7,4.8c34.2,0,65.4-3.5,93.3-10.4C344.5,317,345.9,314.6,345.3,312.1C345.4,312.1,345.4,312.1,345.3,312.1z   M99.5,91.3c16.5-7.2,34.9-9.9,51.5-10.8c-14.5,3.4-28.6,8.2-42.3,14.2c-12.1,5.6-23.6,12.4-34.4,20.1c-3.9,0.8-7.3,1.6-10.1,2.2  C69.4,110.3,80.7,99.6,99.5,91.3z"/><path d="M183.1,157.7c1.9,0,3.5-1.6,3.5-3.5c0-0.9-0.4-1.8-1-2.5c-1.4-1.3-3.6-1.3-5,0c-1.4,1.4-1.4,3.6-0.1,4.9  C181.2,157.3,182.1,157.7,183.1,157.7z"/><path d="M195.7,153.9c0.6,0,1.1-0.1,1.6-0.4c1.7-0.9,2.4-3,1.5-4.7c-0.9-1.7-3-2.4-4.7-1.5c-1.7,0.9-2.4,3-1.5,4.7  C193.2,153.1,194.4,153.9,195.7,153.9z"/><path d="M222.8,122.3c-1.2,1.5-0.9,3.7,0.6,4.9c0.6,0.5,1.4,0.7,2.1,0.7c1.9,0,3.5-1.6,3.5-3.5c0-1.9-1.6-3.5-3.5-3.5  C224.5,121,223.5,121.5,222.8,122.3z"/><path d="M239,105.1c1.9,0,3.5-1.6,3.5-3.5c0-1.9-1.6-3.5-3.5-3.5c-1.9,0-3.5,1.6-3.5,3.5c0,1.4,0.9,2.7,2.2,3.2  C238.1,105,238.5,105.1,239,105.1z"/><path d="M243.1,72.2c-1.9,0.1-3.4,1.7-3.3,3.7s1.7,3.4,3.7,3.3h0.3c1.9-0.2,3.4-1.9,3.2-3.8S245,72,243.1,72.2L243.1,72.2z"/><path d="M243.3,85.4c-1.9-0.3-3.7,0.9-4.1,2.8c-0.3,1.9,0.9,3.7,2.8,4.1c0.2,0,0.4,0.1,0.6,0.1c1.9,0,3.5-1.5,3.5-3.5  C246.3,87.2,245,85.7,243.3,85.4z"/><path d="M216.8,137.9c1.9,0,3.5-1.6,3.5-3.5s-1.6-3.5-3.5-3.5c-0.9,0-1.8,0.4-2.4,1l0,0c-1.4,1.3-1.4,3.5-0.1,4.9  C214.9,137.5,215.8,137.9,216.8,137.9z"/><path d="M206.8,146.7c0.8,0,1.5-0.3,2.1-0.7c1.5-1.2,1.8-3.4,0.7-4.9c-1.2-1.5-3.4-1.8-4.9-0.7c-1.5,1.2-1.8,3.4-0.7,4.9  C204.7,146.2,205.7,146.7,206.8,146.7z"/><path d="M234.8,110.5c-1.7-1-3.8-0.4-4.8,1.2s-0.4,3.8,1.2,4.8c1.7,1,3.8,0.4,4.8-1.2C237.1,113.6,236.5,111.5,234.8,110.5  C234.9,110.5,234.8,110.5,234.8,110.5z"/><path d="M237.6,60.4c-1.4,1.4-1.4,3.6,0,5s3.6,1.4,5,0c1.4-1.3,1.4-3.6,0.1-4.9c0,0,0,0-0.1-0.1C241.2,59,239,59,237.6,60.4z"/><path d="M227.5,70.2c0.5,0,1.1-0.1,1.6-0.4l0,0c1.7-0.9,2.4-2.9,1.6-4.7c-0.9-1.7-2.9-2.4-4.7-1.6c-1.7,0.9-2.4,2.9-1.6,4.7  C225,69.4,226.2,70.2,227.5,70.2z"/><path d="M176.7,141.5c0,1.9,1.6,3.5,3.5,3.5l0,0c1.9,0,3.5-1.6,3.5-3.5s-1.6-3.5-3.5-3.5C178.2,138,176.6,139.5,176.7,141.5  C176.6,141.5,176.6,141.5,176.7,141.5z"/><path d="M200.7,94.6c1.2-1.6,0.8-3.8-0.7-4.9c-1.6-1.2-3.8-0.8-4.9,0.7s-0.8,3.8,0.7,4.9c0.6,0.5,1.3,0.7,2.1,0.7  C199,96.1,200.1,95.5,200.7,94.6z"/><path d="M216.4,77.2c1.9,0,3.5-1.6,3.5-3.5c0-1.9-1.6-3.5-3.5-3.5s-3.5,1.6-3.5,3.5c0,0.8,0.3,1.5,0.7,2.1  C214.2,76.7,215.3,77.2,216.4,77.2z"/><path d="M188.6,116.9c0.7-1.8-0.1-3.8-1.9-4.6c-1.8-0.7-3.8,0.1-4.6,1.9c0,0.1-0.1,0.1-0.1,0.2l0,0c-0.7,1.8,0.2,3.8,2,4.5  c0.4,0.2,0.8,0.2,1.2,0.2C186.7,119.2,188,118.3,188.6,116.9z"/><path d="M181.6,131.8c1.9,0,3.5-1.6,3.5-3.5c0-1.9-1.6-3.5-3.5-3.5c-1.9,0-3.5,1.6-3.5,3.5c0,1.6,1.2,3.1,2.8,3.4  C181.1,131.8,181.3,131.8,181.6,131.8z"/><path d="M209,84.9c1.3-1.4,1.3-3.6-0.1-4.9c-1.4-1.3-3.6-1.3-4.9,0.1s-1.3,3.6,0.1,4.9c0.7,0.6,1.5,1,2.4,1  C207.4,86,208.3,85.6,209,84.9z"/><path d="M190.8,107.2c1.9,0,3.5-1.6,3.5-3.5c0-1.9-1.6-3.5-3.5-3.5c-1.9,0-3.5,1.6-3.5,3.5c0,1.3,0.7,2.5,1.8,3.1  C189.6,107,190.2,107.2,190.8,107.2z"/><text x="0" y="343" fill="#000000" font-size="5px" font-weight="bold" font-family="'Helvetica Neue', Helvetica, Arial-Unicode, Arial, Sans-serif">Created by Joh Gurn</text><text x="0" y="348" fill="#000000" font-size="5px" font-weight="bold" font-family="'Helvetica Neue', Helvetica, Arial-Unicode, Arial, Sans-serif">from the Noun Project</text></svg>